<svg xmlns="http://www.w3.org/2000/svg" width="22" height="21"><g fill="none" fill-rule="evenodd"><path stroke="#FFF" stroke-linecap="round" stroke-linejoin="round" stroke-width="1.7" d="M13.847 13.579c4.911-4.603 7.538-9.792 5.869-11.593C18.046.187 12.712 2.46 7.8 7.063 2.889 11.665.26 16.856 1.93 18.655c1.67 1.799 7.004-.474 11.916-5.076z"/><path stroke="#FFF" stroke-linecap="round" stroke-linejoin="round" stroke-width="1.7" d="M7.8 13.579C2.89 8.976.263 3.787 1.933 1.986 3.6.187 8.935 2.46 13.846 7.063c4.912 4.602 7.54 9.793 5.87 11.592-1.67 1.799-7.005-.474-11.915-5.076z"/><path fill="#FFF" d="M12.774 10.067h-3.9V8.964a.46.46 0 0 1 .46-.46h2.98a.46.46 0 0 1 .46.46v1.103zm-3.902.507h3.902v1.103a.46.46 0 0 1-.46.46h-2.98a.46.46 0 0 1-.46-.46l-.002-1.103z"/></g></svg>