<svg width="30" height="30" fill="#fff" viewBox="0 0 33 25" xmlns="http://www.w3.org/2000/svg"><path d="M32.73 11.76c-.064-.118-1.577-2.905-4.298-5.718C24.75 2.237 20.602.225 16.436.225S8.122 2.237 4.44 6.042C1.718 8.855.206 11.642.142 11.76a1.19 1.19 0 0 0-.12.788c-.05.26-.014.537.12.788.064.117 1.576 2.904 4.298 5.717 3.682 3.805 7.83 5.817 11.996 5.817 4.165 0 8.313-2.012 11.996-5.817 2.72-2.813 4.234-5.6 4.297-5.717.133-.25.17-.53.12-.788a1.19 1.19 0 0 0-.12-.79zM16.435 22.477c-7.64 0-12.922-8.144-13.99-9.93 1.064-1.79 6.328-9.93 13.99-9.93 7.64 0 12.922 8.142 13.988 9.93-1.067 1.788-6.348 9.93-13.988 9.93zm1.874-10.03c0-.572.464-1.195 1.04-1.195h2.535c-.498-2.39-2.75-4.38-5.457-4.38-3.072 0-5.562 2.547-5.562 5.618 0 3.072 2.49 5.634 5.56 5.634 2.727 0 4.993-2.088 5.468-4.48H19.35c-.575 0-1.04-.622-1.04-1.195z"/></svg>