<svg width="30" height="30" fill="#fff" viewBox="0 0 28 29" xmlns="http://www.w3.org/2000/svg"><path d="M13.48 2.728a1.364 1.364 0 0 0 0-2.728H1.606C1.208 0 .77.09.522.36.252.61 0 .888 0 1.285V13.16a1.364 1.364 0 0 0 2.728 0V2.728H13.48zm13.156 10.747c-.754 0-1.364.61-1.364 1.365v10.753H14.84a1.364 1.364 0 0 0 0 2.728h11.876c.397 0 .673-.25.923-.52.27-.25.36-.686.36-1.083V14.84c0-.754-.61-1.365-1.365-1.365zm-13.92 6.303a1.204 1.204 0 0 0 2.407 0v-3.35l3.123 1.756c.19.11.437.162.64.162.417 0 .842-.216 1.065-.602a1.2 1.2 0 0 0-.43-1.645l-2.98-1.726 2.99-1.725a1.202 1.202 0 0 0 .44-1.645c-.33-.576-1.148-.773-1.723-.44l-3.123 1.756V8.865a1.204 1.204 0 0 0-2.407 0v3.394l-2.85-1.693a1.16 1.16 0 0 0-1.605.44c-.33.577-.114 1.313.462 1.645l2.996 1.725L8.74 16.1a1.205 1.205 0 0 0 .607 2.245c.203 0 .33-.052.52-.162l2.85-1.692v3.287z"/></svg>