<svg width="30" height="30" fill="#fff" viewBox="0 0 30 30" xmlns="http://www.w3.org/2000/svg"><path d="M15.01 25.042c-5.51 0-9.99-4.483-9.99-9.992 0-5.51 4.48-9.992 9.99-9.992s9.992 4.483 9.992 9.992c0 5.51-4.482 9.992-9.99 9.992m14.664-12.095l-2.477-.46a12.382 12.382 0 0 0-1.755-4.263l1.466-2.11a.4.4 0 0 0 .005-.566L24.51 3.14a.4.4 0 0 0-.564 0l-2.11 1.456a12.422 12.422 0 0 0-4.262-1.772l-.46-2.47c0-.22-.18-.354-.4-.354h-3.406c-.22 0-.4.134-.4.354l-.46 2.493a12.393 12.393 0 0 0-4.264 1.76l-2.11-1.46a.4.4 0 0 0-.566-.004L3.1 5.55a.4.4 0 0 0 0 .564l1.457 2.11a12.418 12.418 0 0 0-1.772 4.262l-2.45.462c-.22 0-.335.18-.335.4v3.405c0 .22.115.4.335.4l2.482.46a12.39 12.39 0 0 0 1.756 4.263l-1.464 2.11a.4.4 0 0 0-.007.566l2.407 2.41a.4.4 0 0 0 .565 0l2.11-1.458c1.28.838 2.718 1.45 4.262 1.772l.46 2.42c0 .22.18.304.4.304h3.407c.22 0 .4-.084.4-.304l.46-2.468a12.377 12.377 0 0 0 4.263-1.748l2.11 1.47a.4.4 0 0 0 .566.005l2.408-2.406a.4.4 0 0 0 0-.565l-1.454-2.11a12.418 12.418 0 0 0 1.772-4.262l2.44-.462c.22 0 .323-.18.323-.4v-3.404c0-.22-.103-.4-.323-.4zM15.01 10.52a4.536 4.536 0 0 0-4.53 4.53 4.536 4.536 0 0 0 4.53 4.53 4.535 4.535 0 0 0 4.53-4.53 4.535 4.535 0 0 0-4.53-4.53zm0 6.56a2.03 2.03 0 0 1-2.03-2.03c0-1.12.91-2.03 2.03-2.03 1.12 0 2.03.91 2.03 2.03 0 1.12-.91 2.03-2.03 2.03z"/></svg>