<svg xmlns="http://www.w3.org/2000/svg" width="45" height="45"><rect width="100%" height="100%" fill="none"/><g fill="#FFF" fill-rule="nonzero"><path d="M14.982 35.817A16.414 16.233 0 0 1 4.049 20.515 16.405 16.224 0 0 1 20.456 4.29 16.414 16.233 0 0 1 35.93 15.112a1.811 1.791 0 1 0 3.415-1.193A20.036 19.816 0 0 0 20.456.707C9.393.707.426 9.574.426 20.515c0 8.46 5.411 15.9 13.346 18.68a1.811 1.791 0 1 0 1.21-3.378z"/><path d="M15.474 27.096a8.312 8.22 0 1 1 11.628-11.512 1.811 1.791 0 0 0 2.9-2.15 11.934 11.803 0 1 0-16.7 16.527 1.811 1.791 0 1 0 2.174-2.865z"/><path d="M42.317 25.452a1.811 1.791 0 0 0-1.117-3.05l-18.556-1.67a1.811 1.791 0 0 0-1.968 1.947l1.688 18.352a1.811 1.791 0 0 0 3.084 1.103l3.779-3.737 5.467 5.407a1.811 1.791 0 0 0 2.561-2.535l-6.747-6.672a1.811 1.791 0 0 0-2.56 0l-2.328 2.301-1.139-12.401 12.54 1.126-2.327 2.301a1.811 1.791 0 0 0 0 2.533l6.747 6.673a1.811 1.791 0 1 0 2.563-2.533l-5.467-5.407 3.779-3.738z"/></g></svg>