<svg width="30" height="30" fill="#fff" viewBox="0 0 25 29" xmlns="http://www.w3.org/2000/svg"><path d="M13.656 14.19l-5.16-5.158a1.548 1.548 0 1 0-2.188 2.19l4.205 4.204-4.205 4.205a1.548 1.548 0 0 0 2.19 2.19l5.158-5.157c.338-.34.487-.794.446-1.236.04-.44-.108-.897-.446-1.235zm9.66 5.363h-7.494a1.548 1.548 0 0 0 0 3.096h7.495a1.548 1.548 0 0 0 0-3.098zm.082 6.355H3.38c-.264 0-.447-.212-.447-.477V3.48c0-.266.183-.547.448-.547H23.4A1.466 1.466 0 0 0 23.4 0H3.38C1.495 0 0 1.592 0 3.48v21.95c0 1.888 1.494 3.41 3.38 3.41H23.4a1.466 1.466 0 0 0 0-2.932z"/></svg>