<svg width="123" height="141" xmlns="http://www.w3.org/2000/svg" xmlns:xlink="http://www.w3.org/1999/xlink"><defs><path id="a" d="M105.119 58.242H0V.2h105.119z"/></defs><g fill="none" fill-rule="evenodd"><path d="M28.94 48.169c-1.088 2.186-9.715 20.22-8.3 39.712.004.064.088.087.108.026.693-2.152 5.468-16.525 10.498-19.822.02-.014.03-.035.022-.06-.198-.634-2.813-9.217-2.231-19.816.003-.063-.069-.096-.097-.04" fill="#91C2E4"/><path d="M27.932 52.994c-2.436 5.987-6.213 17.207-6.398 29.573 1.93-5.04 5.1-12.116 8.542-14.903-.551-1.942-1.95-7.523-2.144-14.67zm-6.45 36.031l-.904-.061a1.1 1.1 0 0 1-.977-1.007c-1.438-19.803 7.381-38.186 8.402-40.237l.372-.757.878.184c.507.129.853.599.826 1.117C29.5 58.773 32.15 67.36 32.264 67.72l.228.725-.657.487c-4.788 3.139-9.565 17.642-10.093 19.286l-.26.806z" fill="#747C81"/><path d="M67.715 48.169c1.088 2.186 9.715 20.22 8.3 39.712-.004.064-.088.087-.108.026-.693-2.152-5.468-16.525-10.498-19.822-.02-.014-.03-.035-.022-.06.198-.634 2.813-9.217 2.231-19.816-.003-.063.07-.096.097-.04" fill="#91C2E4"/><path d="M66.58 67.664c3.443 2.789 6.612 9.867 8.542 14.905-.186-12.363-3.963-23.585-6.4-29.575-.194 7.132-1.591 12.717-2.143 14.67zm8.65 21.4l-.315-.84c-.53-1.649-5.307-16.152-10.083-19.284l-.644-.422.2-.79c.116-.367 2.764-8.98 2.19-19.463a1.097 1.097 0 0 1 .82-1.117l.82-.213.433.781c1.011 2.033 9.841 20.434 8.404 40.24a1.102 1.102 0 0 1-.972 1.007l-.853.1z" fill="#747C81"/><path d="M49.89 1.695a2.164 2.164 0 0 0-3.125 0C40.398 8.333 17.5 35.987 33.631 76.092c.818 2.032 2.713 3.354 4.8 3.354h19.793c2.086 0 3.982-1.322 4.8-3.354C79.155 35.987 56.257 8.332 49.89 1.695" fill="#F2F2F2"/><path d="M48.327 2.056c-.305 0-.591.122-.804.344C40.513 9.71 18.864 36.592 34.6 75.713c.66 1.644 2.164 2.706 3.83 2.706h19.792c1.666 0 3.17-1.063 3.832-2.706C77.79 36.594 56.142 9.709 49.133 2.4a1.108 1.108 0 0 0-.806-.345m9.896 78.418H38.432c-2.527 0-4.792-1.572-5.77-4.003C16.473 36.22 38.785 8.52 46.009.988A3.188 3.188 0 0 1 48.327 0c.885 0 1.71.351 2.32.988 7.224 7.533 29.536 35.234 13.346 75.483-.979 2.431-3.243 4.003-5.77 4.003" fill="#747C81"/><path d="M50.95 94.578l-2.215 5.002a.44.44 0 0 1-.815 0l-2.215-5.002c-1.836-4.146-2.794-8.732-2.794-13.384V56.657c0-1.205.724-2.277 1.801-2.668 2.343-.85 4.888-.85 7.23 0 1.079.391 1.802 1.463 1.802 2.668v24.537c0 4.652-.958 9.238-2.794 13.384" fill="#91C2E4"/><path d="M48.327 54.382a9.54 9.54 0 0 0-3.255.572c-.669.242-1.118.927-1.118 1.703v24.537c0 4.49.936 8.976 2.706 12.973l1.667 3.765 1.667-3.765c1.772-3.998 2.708-8.484 2.708-12.973V56.657c0-.776-.45-1.46-1.118-1.703a9.548 9.548 0 0 0-3.257-.572m0 46.5h-.001c-.588 0-1.122-.35-1.361-.891l-2.216-5c-1.884-4.255-2.88-9.025-2.88-13.797V56.657c0-1.634.998-3.094 2.483-3.632a11.669 11.669 0 0 1 7.952 0c1.484.538 2.483 1.998 2.483 3.632v24.537c0 4.77-.997 9.54-2.881 13.796l-2.215 5.001c-.241.542-.776.891-1.364.891" fill="#747C81"/><path d="M53.744 37.256c0 3.165-2.425 5.731-5.416 5.731-2.992 0-5.417-2.566-5.417-5.731 0-3.166 2.425-5.732 5.417-5.732 2.99 0 5.416 2.566 5.416 5.732" fill="#F68369"/><path d="M48.327 32.552c-2.412 0-4.373 2.11-4.373 4.703 0 2.594 1.961 4.704 4.373 4.704s4.375-2.11 4.375-4.704c0-2.593-1.963-4.703-4.375-4.703m0 11.463c-3.561 0-6.458-3.032-6.458-6.76 0-3.726 2.897-6.758 6.458-6.758 3.562 0 6.46 3.032 6.46 6.758 0 3.728-2.898 6.76-6.46 6.76" fill="#747C81"/><path d="M51.65 22.843c0 1.942-1.487 3.515-3.322 3.515s-3.322-1.573-3.322-3.515c0-1.94 1.487-3.515 3.322-3.515s3.322 1.574 3.322 3.515" fill="#FBB041"/><path d="M48.327 20.185c-1.352 0-2.453 1.193-2.453 2.658 0 1.466 1.101 2.66 2.453 2.66 1.353 0 2.453-1.194 2.453-2.66 0-1.465-1.1-2.658-2.453-2.658m0 7.03c-2.31 0-4.19-1.961-4.19-4.372 0-2.41 1.88-4.371 4.19-4.371 2.311 0 4.19 1.96 4.19 4.371 0 2.41-1.879 4.372-4.19 4.372" fill="#747C81"/><path d="M10.999 138.823h77.766c6.319 0 14.269-5.093 14.269-11.569 0-14.752-13.749-16.746-13.749-16.746s1.011-7.377-7.077-11.364c-8.087-3.987-17.186-1.395-17.186-1.395S63.65 84.892 48.248 84.892c-15.796 0-16.587 13.454-16.587 13.454s-7.886-2.99-15.57 4.386c-7.683 7.377-3.87 13.87-3.87 13.87s-10.136 3.337-10.136 13.34c0 3.484 3.38 8.881 8.914 8.881" fill="#FFF"/><g transform="translate(0 82.637)"><mask id="b" fill="#fff"><use xlink:href="#a"/></mask><path d="M48.248.2C34.976.2 31.107 8.904 30.005 13.22a16.54 16.54 0 0 0-2.362-.167c-3.287 0-8.212.966-13.006 5.568C8.558 24.46 8.8 29.936 9.576 32.842 5.479 34.88 0 39.573 0 47.303c0 4.568 4.185 10.939 10.999 10.939h77.766c3.589 0 7.613-1.412 10.766-3.776 3.603-2.702 5.588-6.2 5.588-9.85 0-8.51-4.227-13.178-7.774-15.596-2.232-1.52-4.467-2.346-5.962-2.773-.187-2.853-1.489-8.25-8.242-11.579-3.285-1.619-7.061-2.44-11.224-2.44a32.06 32.06 0 0 0-5.307.446 17.78 17.78 0 0 0-2.488-5.165C61.768 4.174 57.104.199 48.248.199m0 2.056c15.4 0 16.774 12.856 16.774 12.856s2.906-.828 6.895-.828c3.068 0 6.776.49 10.291 2.224 8.088 3.987 7.077 11.364 7.077 11.364s13.75 1.993 13.75 16.746c0 6.475-7.951 11.57-14.27 11.57H11c-5.533 0-8.915-5.398-8.915-8.884 0-10 10.137-13.338 10.137-13.338s-3.813-6.493 3.87-13.87c4.244-4.074 8.548-4.986 11.552-4.986 2.436 0 4.018.6 4.018.6s.79-13.454 16.587-13.454" fill="#747C81" mask="url(#b)"/></g><path d="M62.174 110.355h49.294c4.005 0 9.045-3.229 9.045-7.334 0-9.351-8.715-10.615-8.715-10.615s.64-4.676-4.486-7.203c-5.126-2.527-10.894-.885-10.894-.885s-.87-8.148-10.633-8.148c-10.012 0-10.514 8.528-10.514 8.528s-4.998-1.896-9.87 2.78c-4.87 4.675-2.452 8.791-2.452 8.791s-6.425 2.116-6.425 8.456c0 2.209 2.143 5.63 5.65 5.63" fill="#FFF"/><path d="M85.785 74.114c-8.316 0-11.16 5.108-12.12 8.187a11.538 11.538 0 0 0-.94-.039c-2.226 0-5.555.65-8.777 3.743-3.751 3.601-3.946 7.051-3.54 9.172-2.326 1.29-5.97 4.169-5.97 9.547 0 3.21 2.944 7.686 7.736 7.686h49.294c5.147 0 11.13-4.1 11.13-9.388 0-7.54-5.04-11.058-8.766-12.243-.263-2.066-1.382-5.34-5.588-7.414-2.189-1.08-4.697-1.627-7.456-1.627-1.063 0-2.023.084-2.807.19-1.227-3.475-4.694-7.814-12.196-7.814m0 2.056c9.762 0 10.633 8.149 10.633 8.149s1.842-.525 4.37-.525c1.945 0 4.295.31 6.524 1.41 5.127 2.527 4.486 7.203 4.486 7.203s8.715 1.263 8.715 10.615c0 4.104-5.04 7.333-9.045 7.333H62.174c-3.507 0-5.65-3.42-5.65-5.63 0-6.34 6.425-8.455 6.425-8.455s-2.417-4.116 2.453-8.792c2.69-2.582 5.418-3.16 7.323-3.16 1.543 0 2.546.38 2.546.38s.502-8.528 10.514-8.528" fill="#747C81"/></g></svg>
